<svg width="24" height="24" viewBox="0 0 24 24" fill="none" xmlns="http://www.w3.org/2000/svg">
<path fill-rule="evenodd" clip-rule="evenodd" d="M6.7776 3.90879C6.28287 4.40863 5.8781 5.24018 5.8781 5.75668C5.8781 6.29438 4.67876 6.79573 3.06715 6.93053L0.256195 7.16531L0.0395646 14.2471C-0.0998585 18.8176 0.131764 21.7045 0.693954 22.3884C1.95101 23.9182 21.049 23.9182 22.306 22.3884C22.8682 21.7045 23.0999 18.8176 22.9604 14.2471L22.7438 7.16531L20.0355 6.93659C18.0117 6.76544 17.1159 6.23909 16.4907 4.85394C15.7562 3.22493 15.1707 3 11.6657 3C9.47237 3 7.27233 3.40896 6.7776 3.90879ZM7.75206 6.78664C7.39826 7.91355 6.61794 8.3013 4.70349 8.3013H2.13016V14.7386V21.1759H11.5H20.8698V14.7386V8.3013H18.2965C16.3821 8.3013 15.6017 7.91355 15.2479 6.78664C14.8679 5.57643 14.1138 5.27199 11.5 5.27199C8.88619 5.27199 8.1321 5.57643 7.75206 6.78664ZM8.87644 7.54397C8.87644 7.9605 10.057 8.3013 11.5 8.3013C12.943 8.3013 14.1236 7.9605 14.1236 7.54397C14.1236 7.12744 12.943 6.78664 11.5 6.78664C10.057 6.78664 8.87644 7.12744 8.87644 7.54397ZM8.12686 11.3306C6.25364 13.2232 6.18993 16.7538 7.99868 18.4078C9.81793 20.0717 13.5861 20.002 15.1317 18.2761C17.8617 15.2286 15.538 9.81596 11.5 9.81596C10.4693 9.81596 8.9514 10.4976 8.12686 11.3306ZM17.466 10.624C16.7763 11.7517 17.5762 12.3644 19.0109 11.8085C19.6735 11.5518 20.0056 10.9981 19.7485 10.5786C19.1413 9.58573 18.0881 9.60618 17.466 10.624ZM9.60055 12.7143C8.40046 13.6957 8.07813 14.5265 8.44468 15.6936C9.36967 18.6366 13.6048 18.7191 14.5178 15.8117C15.4721 12.7741 12.1132 10.6581 9.60055 12.7143Z" fill="white"/>
</svg>
