<svg width="125" height="126" viewBox="0 0 125 126" fill="none" xmlns="http://www.w3.org/2000/svg">
<g clip-path="url(#clip0_25_9129)">
<path fill-rule="evenodd" clip-rule="evenodd" d="M57.9854 4.21184C61.1139 7.41606 61.7512 9.21712 61.7577 14.8779C61.7677 22.9753 58.3944 29.2306 49.9508 36.7711C39.6438 45.9753 37.0857 48.8591 34.5623 54.1185C32.4208 58.5816 32.1808 59.5411 32.0981 63.9659C31.9866 69.9718 33.1925 74.2664 36.2371 78.706C39.7031 83.7606 50.165 92.5493 51.3293 91.385C51.5047 91.2095 51.2084 90.1843 50.6708 89.1062C49.2248 86.2083 48.9519 79.4478 50.1186 75.4354C51.8786 69.3803 54.9549 65.0927 63.9736 56.125C73.8175 46.3374 77.2812 40.2335 77.8874 31.6033C78.7988 18.6426 69.3475 4.86383 57.753 2.24881L55.5934 1.76172L57.9854 4.21184ZM6.20369 13.7459C5.16144 14.7881 5.23597 9.96888 5.19665 79.2224C5.17963 109.783 5.36038 122.203 5.83515 123.09C6.49242 124.318 6.66378 124.326 32.0042 124.326C54.5188 124.326 57.5118 124.221 57.5118 123.428C57.5118 122.933 57.1432 122.387 56.6925 122.215C56.1139 121.992 55.9601 121.254 56.1691 119.697C56.527 117.026 55.3052 115.523 52.7753 115.523C51.3117 115.523 51.0564 115.752 51.0564 117.062C51.0564 118.343 51.1996 118.482 51.9109 117.892C52.8897 117.08 53.9907 117.546 53.9907 118.772C53.9907 120.394 51.226 121.575 48.3516 121.181C44.4408 120.645 41.7841 119.187 38.0716 115.539C35.6738 113.183 34.4091 111.333 33.4496 108.775C31.7553 104.256 31.6303 99.0182 33.1761 97.3098C34.557 95.7846 37.7418 95.9184 38.0441 97.5147C38.1884 98.2746 37.9378 98.5264 37.1691 98.3949C36.4214 98.2676 36.0916 98.571 36.0916 99.385C36.0916 101.205 38.4478 101.245 39.6274 99.4448C41.1268 97.1567 40.297 94.5 37.7506 93.436C34.7184 92.169 31.6374 93.5282 30.4396 96.6614C29.9789 97.865 29.7847 97.9413 28.949 97.2482C27.7366 96.2429 26.4085 93.1121 26.4085 91.26C26.4085 89.1931 27.9267 88.0945 29.4596 89.0516C30.361 89.6144 30.8181 89.632 31.3193 89.1226C31.8158 88.6174 31.5893 88.1044 30.4202 87.0921C26.6104 83.7899 22.0323 88.8914 25.0012 93.1303C25.5182 93.8685 25.7964 94.6174 25.6198 94.794C24.8393 95.5751 22.8915 91.0205 22.8897 88.409C22.8874 85.5945 21.932 82.6596 21.0182 82.6596C20.0194 82.6596 19.2618 85.9419 19.5623 88.9683L19.868 92.0493H18.0939C14.6151 92.0493 11.1503 95.8603 11.1503 99.6878C11.1503 102.134 12.0071 103.593 14.0728 104.661C16.4273 105.878 17.6104 105.772 19.6204 104.164C21.2571 102.854 21.3035 102.695 20.5646 100.912C19.6397 98.6784 17.905 98.6426 17.888 100.857C17.8745 102.563 16.3762 103.079 15.2776 101.756C14.0975 100.334 14.3721 97.8186 15.8369 96.6326C17.4455 95.3304 21.682 95.2206 24.003 96.4208C25.7143 97.3057 29.3428 101.096 29.3428 101.998C29.3428 102.283 29.5171 103.001 29.7301 103.592C30.0576 104.5 29.8927 104.462 28.6655 103.346C27.0558 101.883 24.6479 101.576 24.6479 102.834C24.6479 103.877 25.7178 104.704 27.6714 105.169C29.0928 105.508 32.277 109.735 32.277 111.282C32.277 111.579 30.7876 111.069 28.9666 110.151C24.226 107.759 21.2741 107.867 18.4455 110.535C17.2477 111.665 15.9302 112.589 15.5177 112.589C14.0922 112.589 12.9108 111.874 12.9108 111.011C12.9108 109.7 11.4701 110.447 11.2612 111.866C11.0118 113.555 13.1286 115.523 15.1949 115.523C16.513 115.523 16.9731 115.849 17.2577 116.983C18.0963 120.323 22.7172 121.182 24.7964 118.384C25.7412 117.113 25.8211 116.619 25.2553 115.562C24.2776 113.735 22.5458 114.234 22.763 116.278C22.8921 117.494 22.6767 117.871 21.8533 117.871C20.2401 117.871 19.3662 116.692 19.3662 114.517C19.3662 112.958 19.7454 112.335 21.2735 111.38C24.5969 109.302 28.5558 110.577 34.0376 115.491L36.0916 117.332L34.2864 116.991C32.1233 116.581 29.1485 117.585 29.4936 118.608C29.665 119.116 30.8839 119.28 33.5024 119.149C36.4801 118.999 37.8774 119.245 40.1996 120.323L43.1339 121.685L26.1221 121.842C16.7659 121.927 8.77705 121.869 8.36977 121.713C7.78644 121.489 7.62916 114.895 7.62916 90.6737C7.62916 73.7588 7.797 59.0276 8.00299 57.9384C8.30698 56.3239 11.9648 52.3509 27.7765 36.4571C38.4466 25.7324 48.0241 16.5551 49.0587 16.0639C50.0934 15.5733 51.8909 15.1713 53.0523 15.1713C54.7729 15.1713 55.1644 14.9542 55.1644 13.9976C55.1644 12.8433 54.7729 12.8239 31.145 12.8239C10.0922 12.8239 7.01238 12.9378 6.20369 13.7459ZM79.0053 13.2922C77.9836 14.9454 79.9279 15.1467 97.4326 15.1983C109.016 15.2324 115.555 15.4683 116.038 15.8697C116.625 16.3568 116.776 22.9618 116.745 46.7864C116.711 72.811 116.596 76.7118 115.933 74.4436C115.509 72.9912 114.588 70.25 113.887 68.3521C111.876 62.9073 111.441 59.767 112.423 57.7746C113.414 55.7635 113.428 55.6643 112.718 55.6643C111.443 55.6643 110.329 57.6414 110.329 59.9049C110.329 62.2641 110.311 62.2852 109.156 61.24C107.388 59.6402 104.46 53.3867 104.46 51.2113C104.46 48.8298 105.88 47.328 107.909 47.5634C108.998 47.6895 109.448 48.0851 109.448 48.9155C109.448 49.7077 109.114 50.0334 108.421 49.9166C107.18 49.7083 107.059 51.1338 108.235 52.1103C108.904 52.6655 109.325 52.5598 110.289 51.5956C113.609 48.2764 109.158 42.8386 105.23 45.4131C103.268 46.6983 101.977 49.9419 102.441 52.4184L102.812 54.392L100.366 53.5493C98.3574 52.8574 97.6468 52.8398 96.3921 53.4519C93.9308 54.652 93.959 55.8157 96.4379 55.3509C97.5805 55.1367 99.4097 55.2564 100.503 55.6174C102.482 56.2705 106.714 60.061 106.124 60.6514C105.954 60.8222 104.803 60.5387 103.566 60.0223C100.499 58.7406 96.8915 59.3192 94.9155 61.409C92.5464 63.9149 92.547 67.8204 94.9179 70.0188C97.9742 72.8527 102.437 71.331 102.01 67.5997C101.869 66.3726 101.459 65.8832 100.451 65.7406C99.2583 65.5716 99.1075 65.7605 99.277 67.2077C99.4337 68.544 99.2207 68.9043 98.1855 69.0516C97.2465 69.1854 96.6474 68.7488 95.9695 67.4378C95.1409 65.8351 95.1344 65.4583 95.9138 63.9513C96.8762 62.0904 97.8932 61.5264 100.254 61.5458C104.291 61.5792 109.823 66.0446 112.135 71.1355C113.748 74.6884 113.558 75.3832 111.457 73.6156C107.374 70.1801 101.002 72.8826 100.958 78.0686C100.944 79.7142 101.306 80.5158 102.485 81.4431C105.089 83.4918 108.568 82.6655 108.568 79.9982C108.568 78.3028 108.17 78.1983 106.718 79.5129C105.304 80.7928 103.873 79.6684 103.873 77.2776C103.873 75.9155 104.247 75.4037 105.683 74.7999C107.972 73.8374 109.893 74.1989 111.781 75.9483C114.562 78.5264 113.41 86.3574 109.534 91.2154C107.528 93.7289 106.869 93.757 107.18 91.3157C107.594 88.0593 104.295 84.0739 102.965 86.2259C102.751 86.5733 103.131 87.3756 103.811 88.0094C105.377 89.4683 105.446 92.7905 103.967 95.5481C102.66 97.9865 101.573 98.5211 101.952 96.5399C102.245 95.0094 101.259 92.6361 100.332 92.6361C100.02 92.6361 99.7641 94.0229 99.763 95.7171C99.7606 98.1438 99.2624 99.7823 97.4156 103.431C95.8287 106.567 95.0705 108.833 95.0705 110.442V112.819L93.135 110.944C92.0711 109.912 90.5846 109.068 89.8328 109.068C88.5623 109.068 88.6409 109.258 90.9408 111.754C93.6444 114.686 93.7266 115.289 91.2994 114.366C88.3522 113.246 84.1532 113.619 82.3604 115.161C80.8991 116.418 80.8058 116.715 81.4349 118.095C81.9202 119.161 82.5875 119.631 83.6145 119.631C85.216 119.631 85.4866 119.085 84.4144 118.013C83.1878 116.786 84.956 115.523 87.8997 115.523C89.7941 115.523 91.8035 116.146 94.8662 117.68C97.233 118.865 99.3346 119.671 99.5359 119.469C99.7371 119.268 99.304 117.661 98.5728 115.897L97.2442 112.691L98.6515 109.853C101.853 103.398 108.856 102.467 111.243 108.179C112.258 110.608 111.626 113.031 109.58 114.559C108.27 115.537 107.774 115.617 106.531 115.051C105.62 114.636 105.047 113.893 105.047 113.125C105.047 112.099 105.299 111.938 106.453 112.228C107.448 112.478 107.968 112.296 108.233 111.607C108.66 110.493 108.214 109.945 106.449 109.414C104.586 108.853 102.504 110.806 102.504 113.117C102.504 117.137 107.491 119.162 111.176 116.638C113.542 115.016 114.437 113.326 114.437 110.478C114.437 103.075 106.179 99.6978 99.9484 104.552L98.2982 105.839L99.4032 104.079C100.607 102.163 101.771 100.998 107.224 96.257C111.725 92.3433 113.731 89.4689 115.429 84.5047L116.762 80.6056L116.626 101.146L116.491 121.685L95.3715 121.979C75.8598 122.25 74.2377 122.35 74.0552 123.299C73.8698 124.263 75.2225 124.326 95.8868 124.326C117.066 124.326 117.94 124.282 118.524 123.191C118.93 122.432 119.132 104.268 119.132 68.4114C119.132 17.186 119.083 14.7224 118.058 13.7952C117.107 12.9337 114.852 12.8239 98.1397 12.8239C87.7753 12.8239 79.1644 13.0346 79.0053 13.2922ZM8.31402 15.8949C7.52411 16.6848 7.30463 52.73 8.08925 52.73C8.73362 52.73 14.6714 46.6502 14.6714 45.9906C14.6714 45.6936 13.8222 44.5739 12.7847 43.5035L10.8974 41.5563L13.2248 39.2289L15.5523 36.9014L17.4273 38.6537C18.459 39.6174 19.5505 40.4061 19.8539 40.4061C20.1567 40.4061 21.4866 39.2916 22.8093 37.929L25.2137 35.4519L23.3451 33.524L21.4766 31.5962L23.9425 29.0833C25.2988 27.7013 26.4085 26.3022 26.4085 25.9742C26.4085 25.6467 25.4842 24.4824 24.3545 23.3873C23.2248 22.2922 22.3005 21.1056 22.3005 20.7506C22.3005 20.3949 23.3017 19.1267 24.5259 17.9313L26.7512 15.7582L29.1873 18.2523L31.6233 20.7465L29.2682 23.3362L26.9132 25.926L28.9519 27.9654L30.9912 30.0041L36.3557 24.4953C39.3064 21.4648 42.5529 18.1267 43.5711 17.0769L45.4214 15.1678L27.2101 15.1889C14.1374 15.2036 8.8058 15.4032 8.31402 15.8949ZM12.9954 18.4624L11.0253 20.473L13.2189 23.1502L15.4126 25.8274L17.976 23.3116L20.54 20.7958L18.3668 18.5704C17.1714 17.3462 15.9173 16.3691 15.5793 16.3979C15.2413 16.4272 14.0787 17.3562 12.9954 18.4624ZM101.972 18.331C100.21 19.669 99.1438 22.9489 99.9502 24.5516C100.906 26.4536 102.118 26.7212 102.536 25.1226C102.862 23.8773 102.927 23.8621 103.653 24.855C104.289 25.7242 104.58 25.7782 105.322 25.1631C106.573 24.1244 106.443 21.8316 104.999 19.4953C103.642 17.2993 103.436 17.2201 101.972 18.331ZM35.4085 19.6121C34.9461 20.8175 35.8745 21.7183 36.9155 21.0745C37.8023 20.5264 37.3938 18.6925 36.385 18.6925C36.0417 18.6925 35.6027 19.1062 35.4085 19.6121ZM50.6831 19.5686C50.4801 20.0986 50.5951 20.8134 50.939 21.1573C51.8334 22.0516 53.527 21.2341 53.2935 20.0217C53.0335 18.6708 51.1532 18.3445 50.6831 19.5686ZM85.8915 20.7506C85.6873 21.2828 85.9056 22.1033 86.3768 22.5739C87.5511 23.7482 89.3123 22.9888 89.0863 21.4055C88.8639 19.8456 86.4302 19.3468 85.8915 20.7506ZM45.5623 23.6807C45.0182 25.0992 45.7958 26.3216 47.2418 26.3216C47.9795 26.3216 48.7354 25.9254 48.9214 25.4413C49.4654 24.0229 48.6878 22.8004 47.2418 22.8004C46.5042 22.8004 45.7483 23.1966 45.5623 23.6807ZM67.226 26.581C65.2101 34.0281 63.5218 36.5047 54.2589 45.6021C41.9877 57.6543 39.601 61.8175 40.0194 70.436C40.2565 75.3304 41.875 80.1614 43.1086 79.6602C43.4185 79.534 43.5945 77.4342 43.5012 74.9753C43.2841 69.2418 43.9484 66.9137 47.4777 61.0416C49.6074 57.4982 52.3586 54.2793 57.9736 48.7629C66.7765 40.1132 68.6427 37.0587 69.0975 30.5534C69.2489 28.3873 69.1339 25.7054 68.8416 24.5939L68.3111 22.5728L67.226 26.581ZM93.4408 26.0616C91.7706 27.2312 91.7935 28.1426 93.5341 29.7776C95.0781 31.2283 98.236 31.6109 99.3522 30.483C99.9038 29.926 99.8305 29.6408 99.0194 29.1831C98.4478 28.8609 98.1356 28.3445 98.3263 28.0364C98.5171 27.7283 98.9185 27.6279 99.2189 27.8139C100.018 28.3075 99.8868 26.6778 99.0611 25.8521C98.0705 24.8615 94.9895 24.9765 93.4408 26.0616ZM106.556 26.0698C105.266 27.3603 105.407 28.0798 106.954 28.0951L108.275 28.108L106.909 29.159C105.806 30.0076 105.693 30.3339 106.322 30.8509C108.056 32.277 110.378 31.9806 112.267 30.0915C114.021 28.3386 113.799 27.2154 111.46 26.0064C109.315 24.8973 107.708 24.9178 106.556 26.0698ZM13.4555 28.7036C12.3492 30.0516 11.3745 31.331 11.29 31.5463C11.2055 31.7617 12.1462 32.9243 13.3803 34.1297L15.6251 36.321L18.2013 33.9425L20.7782 31.5634L18.1227 28.9078L15.4672 26.2523L13.4555 28.7036ZM101.673 27.2969C100.676 27.6995 100.746 29.5387 101.791 30.4061C102.813 31.2547 105.047 30.6725 105.047 29.5575C105.047 27.2799 103.795 26.4407 101.673 27.2969ZM40.6902 28.4143C40.182 29.74 41.2231 31.3098 42.611 31.3098C44.3698 31.3098 44.1708 27.8527 42.3979 27.6009C41.5675 27.483 40.9314 27.7858 40.6902 28.4143ZM83.6503 32.6303C81.868 44.7641 79.8117 48.622 70.6597 56.9953C56.0482 70.365 52.0734 76.6156 53.0769 84.6479C53.3199 86.5933 54.1268 88.8515 55.162 90.4841C57.6415 94.3932 61.7929 96.7664 59.7853 93.1267C59.3504 92.3392 59.0212 89.7582 59.0112 87.061C58.9965 83.0839 59.2342 81.9078 60.5675 79.3685C62.3962 75.8873 67.182 71.3586 70.753 69.7318C72.1209 69.1091 74.6996 68.4278 76.4842 68.2177C80.486 67.7476 82.834 65.9566 85.8445 61.0786C90.8985 52.8908 91.1691 41.0252 86.486 32.9237C85.6931 31.5522 84.8035 30.4296 84.5089 30.4296C84.2143 30.4296 83.8281 31.4202 83.6503 32.6303ZM99.2958 32.3075C97.584 34.0193 99.6292 39.2382 102.009 39.2283C103.19 39.2236 105.634 35.8186 105.634 34.1784C105.634 33.0393 104.625 31.6033 103.825 31.6033C103.604 31.6033 103.285 32.1314 103.116 32.777C102.948 33.4225 102.521 33.9507 102.168 33.9507C101.815 33.9507 101.526 33.4225 101.526 32.777C101.526 31.4695 100.376 31.2277 99.2958 32.3075ZM36.0916 33.3638C35.54 34.2558 36.3117 35.1244 37.6562 35.1244C38.5112 35.1244 38.7553 34.8562 38.5018 34.196C38.3058 33.6854 38.1456 33.1573 38.1456 33.0223C38.1456 32.517 36.4396 32.8004 36.0916 33.3638ZM109.948 39.5416C109.732 40.1056 109.92 40.7453 110.39 41.0428C111.553 41.7781 112.383 41.3738 112.383 40.0716C112.383 38.6543 110.45 38.2335 109.948 39.5416ZM29.1039 41.3556C28.8915 41.9096 28.9725 42.6179 29.2841 42.9296C30.1321 43.7776 31.8058 42.9067 31.5799 41.7353C31.3158 40.3615 29.5869 40.0968 29.1039 41.3556ZM96.4566 44.8075C95.9754 46.061 96.6344 47.4483 97.7113 47.4483C98.9555 47.4483 99.4754 45.8726 98.5852 44.7999C97.6614 43.6866 96.8856 43.6889 96.4566 44.8075ZM48.709 46.2746C48.709 46.5974 48.9731 46.8615 49.2958 46.8615C49.6186 46.8615 49.8827 46.5974 49.8827 46.2746C49.8827 45.9519 49.6186 45.6878 49.2958 45.6878C48.9731 45.6878 48.709 45.9519 48.709 46.2746ZM22.2923 47.3368C19.9731 49.2148 21.0623 53.3169 23.8797 53.3169C24.7853 53.3169 24.902 52.3697 24.0611 51.8497C23.0998 51.2558 23.3927 49.4648 24.6339 48.3409C26.7923 46.3879 24.6168 45.4548 22.2923 47.3368ZM44.3076 47.4483C44.108 47.7711 44.2248 48.0352 44.5664 48.0352C44.9079 48.0352 45.1878 47.7711 45.1878 47.4483C45.1878 47.1256 45.0716 46.8615 44.929 46.8615C44.7864 46.8615 44.5071 47.1256 44.3076 47.4483ZM82.8504 51.294C83.1157 52.5686 84.1573 52.6467 84.3956 51.4096C84.5188 50.767 84.2313 50.3826 83.6268 50.3826C83.0629 50.3826 82.7395 50.7623 82.8504 51.294ZM40.493 52.4366C40.493 52.9208 40.8891 53.3169 41.3733 53.3169C41.8574 53.3169 42.2536 52.9208 42.2536 52.4366C42.2536 51.9524 41.8574 51.5563 41.3733 51.5563C40.8891 51.5563 40.493 51.9524 40.493 52.4366ZM15.2999 56.6684C11.4396 58.6825 9.72716 63.1003 11.3287 66.9119C12.368 69.3861 15.7172 72.6831 17.1908 72.6831C18.1608 72.6831 18.0605 72.3943 16.4537 70.5639C14.1955 67.9918 13.4977 66.277 13.4977 63.2975C13.4977 59.4542 17.8592 57.1344 20.2072 59.7289C21.7283 61.4096 21.1738 63.0411 19.1538 62.8239C17.7418 62.6725 17.5429 62.8339 17.7078 63.9976C17.9596 65.774 20.439 66.0921 22.2982 64.5874C23.3469 63.7377 23.6509 62.9401 23.5863 61.2101C23.4255 56.9395 19.209 54.6285 15.2999 56.6684ZM37.5863 56.5117C36.7823 57.48 37.2242 58.5986 38.4109 58.5986C39.5323 58.5986 39.976 57.0393 39.0687 56.2869C38.5047 55.8186 38.1121 55.8779 37.5863 56.5117ZM56.3381 56.8034C56.3381 57.4677 56.6022 58.0117 56.9249 58.0117C57.2477 58.0117 57.5118 57.6314 57.5118 57.1661C57.5118 56.7007 57.2477 56.1573 56.9249 55.9577C56.6022 55.7582 56.3381 56.1391 56.3381 56.8034ZM79.2254 57.767C79.2254 58.8034 80.4889 58.6232 80.8516 57.5352C80.9795 57.1514 80.6655 56.838 80.1544 56.838C79.6438 56.838 79.2254 57.2564 79.2254 57.767ZM52.5235 60.946C52.2894 61.3251 52.3616 61.899 52.6843 62.2218C53.0758 62.6132 53.4132 62.5792 53.6972 62.1197C53.9314 61.7406 53.8592 61.1666 53.5364 60.8439C53.145 60.4524 52.8076 60.4865 52.5235 60.946ZM35.5975 63.1027C35.385 63.3151 35.2113 63.8409 35.2113 64.2717C35.2113 65.1455 36.7242 65.3427 37.2242 64.5334C37.6239 63.8873 36.128 62.5722 35.5975 63.1027ZM48.3704 65.8398C47.9907 66.8298 48.4742 67.9882 49.2677 67.9882C50.192 67.9882 50.3991 66.3134 49.5611 65.6174C48.9003 65.0686 48.6485 65.1156 48.3704 65.8398ZM46.6861 71.4595C46.4971 71.7652 46.5928 72.1696 46.8985 72.3586C47.2043 72.5475 47.6086 72.4519 47.7976 72.1461C47.9866 71.8404 47.8909 71.436 47.5851 71.247C47.2794 71.0581 46.8751 71.1537 46.6861 71.4595ZM78.1597 72.7324C72.7735 73.7735 68.8304 77.6637 68.314 82.4478C67.7266 87.8903 71.493 92.0493 77.01 92.0493C79.439 92.0493 80.1837 91.7682 81.6556 90.2963C83.0042 88.9472 83.3662 88.1115 83.2242 86.6737C83.0405 84.8098 81.5728 83.5164 81.5728 85.2183C81.5728 86.1854 79.422 87.9413 78.2371 87.9413C76.9525 87.9413 75.1174 85.4249 75.1174 83.6637C75.1174 82.5035 75.7571 81.3157 77.1127 79.9601C82.0329 75.0399 90.4126 79.0252 90.5177 86.3363C90.5875 91.1884 88.0582 94.4049 79.2254 100.697C73.6914 104.638 67.6462 110.62 66.0218 113.762C64.8105 116.104 64.7295 116.006 63.1427 110.23C61.9455 105.874 59.03 101.631 55.8445 99.6115C52.9425 97.7711 49.4079 96.436 48.8674 96.9765C48.6755 97.169 50.0945 98.9777 52.0218 100.996C55.7982 104.953 58.8727 109.159 59.9267 111.811C61.1121 114.795 62.7729 121.644 62.7835 123.593C62.7964 126.099 64.2049 126.117 65.4924 123.627C66.9648 120.779 71.8604 115.849 78.0517 110.978C85.6732 104.982 91.6714 98.6889 93.6961 94.5657C99.5276 82.6895 90.716 70.3063 78.1597 72.7324ZM21.7137 74.9425C21.7137 77.0598 24.2589 80.3122 25.9155 80.3122C26.9731 80.3122 26.9948 80.2283 26.1579 79.3908C25.6509 78.8844 25.0887 77.7617 24.9073 76.8967C24.432 74.6273 23.7759 73.5898 22.6779 73.3738C21.956 73.2318 21.7137 73.6256 21.7137 74.9425ZM12.5265 77.6966C12.0781 78.865 12.1374 78.9014 15.2395 79.3779L17.8616 79.7799L16.4578 78.2858C14.8809 76.6068 13.0499 76.3327 12.5265 77.6966ZM12.9719 87.3163C11.9731 87.9343 12.5405 89.7019 13.7383 89.7019C15.0265 89.7019 15.5083 88.5264 14.5939 87.6127C14.0898 87.1086 13.4866 86.9982 12.9719 87.3163ZM63.3803 89.9953C63.3803 90.4794 63.7765 90.8756 64.2606 90.8756C64.7448 90.8756 65.1409 90.4794 65.1409 89.9953C65.1409 89.5111 64.7448 89.115 64.2606 89.115C63.7765 89.115 63.3803 89.5111 63.3803 89.9953ZM67.1632 95.0346C66.5587 96.0135 67.9185 97.1356 68.7283 96.3257C69.4056 95.6485 68.9819 94.3967 68.0752 94.3967C67.7905 94.3967 67.3803 94.6837 67.1632 95.0346ZM110.916 96.1573C110.27 96.8028 109.742 97.8404 109.742 98.463C109.742 99.7916 111.227 101.439 112.424 101.439C113.455 101.439 113.494 100.62 112.538 99.0886C111.917 98.0939 112.002 97.7958 113.135 97.0023C114.507 96.0411 114.403 94.9836 112.935 94.9836C112.47 94.9836 111.561 95.5117 110.916 96.1573ZM72.9596 98.8574C72.5488 99.9278 73.7412 100.893 74.9173 100.441C75.3504 100.276 75.7043 99.6397 75.7043 99.0287C75.7043 97.642 73.4789 97.5035 72.9596 98.8574ZM63.3698 99.098C62.6849 99.5211 62.6585 99.7782 63.2383 100.358C64.1139 101.234 65.3093 100.314 64.6608 99.2641C64.3827 98.814 63.9249 98.7547 63.3698 99.098ZM84.8005 100.265C85.0001 100.588 85.2794 100.852 85.422 100.852C85.5646 100.852 85.6808 100.588 85.6808 100.265C85.6808 99.9425 85.4009 99.6784 85.0593 99.6784C84.7178 99.6784 84.601 99.9425 84.8005 100.265ZM41.3733 103.436C38.7348 104.6 37.4537 106.375 37.1209 109.326C36.9085 111.209 37.1027 112.408 37.7905 113.458C39.1914 115.595 39.9871 115.275 39.0212 112.962C37.2553 108.735 40.1743 104.44 44.2882 105.211C47.5282 105.819 49.3616 109.656 47.2495 111.409C46.1673 112.307 44.601 111.776 44.601 110.511C44.601 109.04 42.5758 109.759 42.3551 111.307C42.0869 113.193 43.2518 114.352 45.4062 114.341C47.5382 114.33 48.1227 113.997 49.4766 112.018C51.5335 109.012 50.1409 104.912 46.554 103.413C44.2231 102.439 43.6256 102.442 41.3733 103.436ZM67.2524 103.631C67.0593 103.824 66.9015 104.485 66.9015 105.101C66.9015 106.48 68.8533 106.286 69.1245 104.88C69.3087 103.924 67.8997 102.984 67.2524 103.631ZM77.8615 105.782C77.6714 106.278 77.7506 106.828 78.037 107.005C78.804 107.479 79.4549 106.129 78.7829 105.457C78.4073 105.081 78.0875 105.194 77.8615 105.782ZM71.0094 112.296C71.0094 112.78 71.2735 113.176 71.5963 113.176C71.9191 113.176 72.1832 112.78 72.1832 112.296C72.1832 111.812 71.9191 111.415 71.5963 111.415C71.2735 111.415 71.0094 111.812 71.0094 112.296ZM11.9989 118.509C11.7823 118.86 11.8346 119.377 12.1157 119.658C12.8099 120.352 14.3375 119.342 13.8316 118.523C13.3193 117.694 12.5065 117.687 11.9989 118.509Z" fill="#461C07"/>
</g>
<defs>
<clipPath id="clip0_25_9129">
<rect width="125" height="125" fill="white" transform="translate(0 0.5)"/>
</clipPath>
</defs>
</svg>
